<mxfile host="app.diagrams.net" modified="2024-03-31T13:27:04.946Z" agent="Mozilla/5.0 (Windows NT 10.0; Win64; x64) AppleWebKit/537.36 (KHTML, like Gecko) Chrome/123.0.0.0 Safari/537.36 Trailer/93.3.3587.29" etag="LCwT2bSvFEj7H-QKEt2k" version="24.2.1" type="device">
  <diagram name="Pagina-1" id="fbqunWjZAxdyamzSwqnj">
    <mxGraphModel dx="1120" dy="529" grid="1" gridSize="10" guides="1" tooltips="1" connect="1" arrows="1" fold="1" page="1" pageScale="1" pageWidth="827" pageHeight="1169" math="0" shadow="0">
      <root>
        <mxCell id="0" />
        <mxCell id="1" parent="0" />
        <mxCell id="9_fANw1bV_Ta1_bifgJS-7" style="edgeStyle=orthogonalEdgeStyle;rounded=0;orthogonalLoop=1;jettySize=auto;html=1;exitX=0.5;exitY=1;exitDx=0;exitDy=0;entryX=0.5;entryY=0;entryDx=0;entryDy=0;" edge="1" parent="1" source="9_fANw1bV_Ta1_bifgJS-1" target="9_fANw1bV_Ta1_bifgJS-6">
          <mxGeometry relative="1" as="geometry" />
        </mxCell>
        <mxCell id="9_fANw1bV_Ta1_bifgJS-1" value="START" style="ellipse;whiteSpace=wrap;html=1;" vertex="1" parent="1">
          <mxGeometry x="354" y="20" width="120" height="80" as="geometry" />
        </mxCell>
        <mxCell id="9_fANw1bV_Ta1_bifgJS-5" value="" style="edgeStyle=orthogonalEdgeStyle;rounded=0;orthogonalLoop=1;jettySize=auto;html=1;" edge="1" parent="1" source="9_fANw1bV_Ta1_bifgJS-2" target="9_fANw1bV_Ta1_bifgJS-4">
          <mxGeometry relative="1" as="geometry" />
        </mxCell>
        <mxCell id="9_fANw1bV_Ta1_bifgJS-2" value="Ask the user for&lt;div&gt;gender, age, height, weight, physical activity&lt;/div&gt;" style="whiteSpace=wrap;html=1;" vertex="1" parent="1">
          <mxGeometry x="354" y="240" width="120" height="60" as="geometry" />
        </mxCell>
        <mxCell id="9_fANw1bV_Ta1_bifgJS-10" value="" style="edgeStyle=orthogonalEdgeStyle;rounded=0;orthogonalLoop=1;jettySize=auto;html=1;" edge="1" parent="1" source="9_fANw1bV_Ta1_bifgJS-4" target="9_fANw1bV_Ta1_bifgJS-9">
          <mxGeometry relative="1" as="geometry" />
        </mxCell>
        <mxCell id="9_fANw1bV_Ta1_bifgJS-4" value="Show the user the avaiable foods" style="whiteSpace=wrap;html=1;" vertex="1" parent="1">
          <mxGeometry x="354" y="340" width="120" height="60" as="geometry" />
        </mxCell>
        <mxCell id="9_fANw1bV_Ta1_bifgJS-8" style="edgeStyle=orthogonalEdgeStyle;rounded=0;orthogonalLoop=1;jettySize=auto;html=1;exitX=0.5;exitY=1;exitDx=0;exitDy=0;entryX=0.5;entryY=0;entryDx=0;entryDy=0;" edge="1" parent="1" source="9_fANw1bV_Ta1_bifgJS-6" target="9_fANw1bV_Ta1_bifgJS-2">
          <mxGeometry relative="1" as="geometry" />
        </mxCell>
        <mxCell id="9_fANw1bV_Ta1_bifgJS-6" value="Store in text variable&lt;div&gt;avaiable food names and their nutritional properties&lt;/div&gt;" style="rounded=0;whiteSpace=wrap;html=1;" vertex="1" parent="1">
          <mxGeometry x="354" y="140" width="120" height="60" as="geometry" />
        </mxCell>
        <mxCell id="9_fANw1bV_Ta1_bifgJS-16" value="" style="edgeStyle=orthogonalEdgeStyle;rounded=0;orthogonalLoop=1;jettySize=auto;html=1;" edge="1" parent="1" source="9_fANw1bV_Ta1_bifgJS-9" target="9_fANw1bV_Ta1_bifgJS-15">
          <mxGeometry relative="1" as="geometry" />
        </mxCell>
        <mxCell id="9_fANw1bV_Ta1_bifgJS-9" value="Ask the user for food preferences or food restrictions in avaiable food" style="whiteSpace=wrap;html=1;" vertex="1" parent="1">
          <mxGeometry x="354" y="440" width="120" height="60" as="geometry" />
        </mxCell>
        <mxCell id="9_fANw1bV_Ta1_bifgJS-24" style="edgeStyle=orthogonalEdgeStyle;rounded=0;orthogonalLoop=1;jettySize=auto;html=1;exitX=0.5;exitY=1;exitDx=0;exitDy=0;entryX=0;entryY=0.5;entryDx=0;entryDy=0;" edge="1" parent="1" source="9_fANw1bV_Ta1_bifgJS-11" target="9_fANw1bV_Ta1_bifgJS-13">
          <mxGeometry relative="1" as="geometry" />
        </mxCell>
        <mxCell id="9_fANw1bV_Ta1_bifgJS-11" value="Calculation of basic calorie need (BCN)&lt;div&gt;&lt;br&gt;&lt;div&gt;male: 66,5+(13,8*weight)+5*height-6,8*age&lt;/div&gt;&lt;/div&gt;" style="whiteSpace=wrap;html=1;" vertex="1" parent="1">
          <mxGeometry x="30" y="535" width="254" height="70" as="geometry" />
        </mxCell>
        <mxCell id="9_fANw1bV_Ta1_bifgJS-27" value="" style="edgeStyle=orthogonalEdgeStyle;rounded=0;orthogonalLoop=1;jettySize=auto;html=1;" edge="1" parent="1" source="9_fANw1bV_Ta1_bifgJS-13" target="9_fANw1bV_Ta1_bifgJS-26">
          <mxGeometry relative="1" as="geometry" />
        </mxCell>
        <mxCell id="9_fANw1bV_Ta1_bifgJS-13" value="Calculation of calorie need&amp;nbsp;&lt;span style=&quot;background-color: initial;&quot;&gt;(CN)&lt;/span&gt;&lt;div&gt;&lt;br&gt;&lt;/div&gt;&lt;div&gt;sedentary: 1,1*BCN&lt;/div&gt;&lt;div&gt;light: 1,2*BCN&lt;/div&gt;&lt;div&gt;moderate: 1,3*BCN&lt;/div&gt;&lt;div&gt;heavy: 1,4*BCN&lt;/div&gt;" style="whiteSpace=wrap;html=1;" vertex="1" parent="1">
          <mxGeometry x="296" y="640" width="236" height="100" as="geometry" />
        </mxCell>
        <mxCell id="9_fANw1bV_Ta1_bifgJS-17" style="edgeStyle=orthogonalEdgeStyle;rounded=0;orthogonalLoop=1;jettySize=auto;html=1;exitX=0;exitY=0.5;exitDx=0;exitDy=0;entryX=1;entryY=0.5;entryDx=0;entryDy=0;" edge="1" parent="1" source="9_fANw1bV_Ta1_bifgJS-15" target="9_fANw1bV_Ta1_bifgJS-11">
          <mxGeometry relative="1" as="geometry" />
        </mxCell>
        <mxCell id="9_fANw1bV_Ta1_bifgJS-18" value="YES" style="edgeLabel;html=1;align=center;verticalAlign=middle;resizable=0;points=[];" vertex="1" connectable="0" parent="9_fANw1bV_Ta1_bifgJS-17">
          <mxGeometry x="-0.1707" y="1" relative="1" as="geometry">
            <mxPoint as="offset" />
          </mxGeometry>
        </mxCell>
        <mxCell id="9_fANw1bV_Ta1_bifgJS-20" value="" style="edgeStyle=orthogonalEdgeStyle;rounded=0;orthogonalLoop=1;jettySize=auto;html=1;" edge="1" parent="1" source="9_fANw1bV_Ta1_bifgJS-15" target="9_fANw1bV_Ta1_bifgJS-19">
          <mxGeometry relative="1" as="geometry" />
        </mxCell>
        <mxCell id="9_fANw1bV_Ta1_bifgJS-21" value="NO" style="edgeLabel;html=1;align=center;verticalAlign=middle;resizable=0;points=[];" vertex="1" connectable="0" parent="9_fANw1bV_Ta1_bifgJS-20">
          <mxGeometry x="-0.2821" y="3" relative="1" as="geometry">
            <mxPoint as="offset" />
          </mxGeometry>
        </mxCell>
        <mxCell id="9_fANw1bV_Ta1_bifgJS-15" value="gender=male" style="rhombus;whiteSpace=wrap;html=1;" vertex="1" parent="1">
          <mxGeometry x="366" y="530" width="96" height="80" as="geometry" />
        </mxCell>
        <mxCell id="9_fANw1bV_Ta1_bifgJS-25" style="edgeStyle=orthogonalEdgeStyle;rounded=0;orthogonalLoop=1;jettySize=auto;html=1;exitX=0.5;exitY=1;exitDx=0;exitDy=0;entryX=1;entryY=0.5;entryDx=0;entryDy=0;" edge="1" parent="1" source="9_fANw1bV_Ta1_bifgJS-19" target="9_fANw1bV_Ta1_bifgJS-13">
          <mxGeometry relative="1" as="geometry" />
        </mxCell>
        <mxCell id="9_fANw1bV_Ta1_bifgJS-19" value="&lt;div&gt;Calculation of basic calorie need (BCN)&lt;/div&gt;&lt;div&gt;&lt;br&gt;&lt;/div&gt;female:&lt;span style=&quot;background-color: initial;&quot;&gt;655,1+(9,6*weight)+1,9*height-4,7*age&lt;/span&gt;" style="whiteSpace=wrap;html=1;" vertex="1" parent="1">
          <mxGeometry x="540" y="540" width="260" height="60" as="geometry" />
        </mxCell>
        <mxCell id="9_fANw1bV_Ta1_bifgJS-29" value="" style="edgeStyle=orthogonalEdgeStyle;rounded=0;orthogonalLoop=1;jettySize=auto;html=1;" edge="1" parent="1" source="9_fANw1bV_Ta1_bifgJS-26" target="9_fANw1bV_Ta1_bifgJS-28">
          <mxGeometry relative="1" as="geometry" />
        </mxCell>
        <mxCell id="9_fANw1bV_Ta1_bifgJS-26" value="Calculation of meal calori need (MCN)&lt;div&gt;&lt;br&gt;&lt;/div&gt;&lt;div&gt;breakfast: 0,3*CN&lt;/div&gt;&lt;div&gt;snack: 0,05*CN&lt;/div&gt;&lt;div&gt;launch: 0,35*CN&lt;/div&gt;&lt;div&gt;dinner: 0,25*CN&lt;/div&gt;" style="whiteSpace=wrap;html=1;" vertex="1" parent="1">
          <mxGeometry x="281" y="790" width="266" height="100" as="geometry" />
        </mxCell>
        <mxCell id="9_fANw1bV_Ta1_bifgJS-31" value="" style="edgeStyle=orthogonalEdgeStyle;rounded=0;orthogonalLoop=1;jettySize=auto;html=1;" edge="1" parent="1" source="9_fANw1bV_Ta1_bifgJS-28" target="9_fANw1bV_Ta1_bifgJS-30">
          <mxGeometry relative="1" as="geometry" />
        </mxCell>
        <mxCell id="9_fANw1bV_Ta1_bifgJS-28" value="Take a choice between food avaiable for a meal" style="whiteSpace=wrap;html=1;" vertex="1" parent="1">
          <mxGeometry x="300" y="920" width="226" height="60" as="geometry" />
        </mxCell>
        <mxCell id="9_fANw1bV_Ta1_bifgJS-33" value="" style="edgeStyle=orthogonalEdgeStyle;rounded=0;orthogonalLoop=1;jettySize=auto;html=1;" edge="1" parent="1" source="9_fANw1bV_Ta1_bifgJS-30" target="9_fANw1bV_Ta1_bifgJS-32">
          <mxGeometry relative="1" as="geometry" />
        </mxCell>
        <mxCell id="9_fANw1bV_Ta1_bifgJS-30" value="Extract kCal from the relevant food text variable" style="whiteSpace=wrap;html=1;" vertex="1" parent="1">
          <mxGeometry x="299" y="1000" width="230" height="60" as="geometry" />
        </mxCell>
        <mxCell id="9_fANw1bV_Ta1_bifgJS-35" value="" style="edgeStyle=orthogonalEdgeStyle;rounded=0;orthogonalLoop=1;jettySize=auto;html=1;" edge="1" parent="1" source="9_fANw1bV_Ta1_bifgJS-32" target="9_fANw1bV_Ta1_bifgJS-34">
          <mxGeometry relative="1" as="geometry" />
        </mxCell>
        <mxCell id="9_fANw1bV_Ta1_bifgJS-32" value="Calculate food amount by dividing MCN by the kCal of the food and multiply the result for the reference quantity&lt;div&gt;e.g.: MCN/kCal*100 g&lt;/div&gt;" style="whiteSpace=wrap;html=1;" vertex="1" parent="1">
          <mxGeometry x="299" y="1090" width="230" height="60" as="geometry" />
        </mxCell>
        <mxCell id="9_fANw1bV_Ta1_bifgJS-37" value="" style="edgeStyle=orthogonalEdgeStyle;rounded=0;orthogonalLoop=1;jettySize=auto;html=1;" edge="1" parent="1" source="9_fANw1bV_Ta1_bifgJS-34" target="9_fANw1bV_Ta1_bifgJS-36">
          <mxGeometry relative="1" as="geometry" />
        </mxCell>
        <mxCell id="9_fANw1bV_Ta1_bifgJS-34" value="Store food name and the relevant quantity in a text variable" style="whiteSpace=wrap;html=1;" vertex="1" parent="1">
          <mxGeometry x="299" y="1200" width="230" height="60" as="geometry" />
        </mxCell>
        <mxCell id="9_fANw1bV_Ta1_bifgJS-39" value="" style="edgeStyle=orthogonalEdgeStyle;rounded=0;orthogonalLoop=1;jettySize=auto;html=1;" edge="1" parent="1" source="9_fANw1bV_Ta1_bifgJS-36" target="9_fANw1bV_Ta1_bifgJS-38">
          <mxGeometry relative="1" as="geometry" />
        </mxCell>
        <mxCell id="9_fANw1bV_Ta1_bifgJS-36" value="print to video the entire daily food plan" style="whiteSpace=wrap;html=1;" vertex="1" parent="1">
          <mxGeometry x="354" y="1310" width="120" height="60" as="geometry" />
        </mxCell>
        <mxCell id="9_fANw1bV_Ta1_bifgJS-38" value="END" style="whiteSpace=wrap;html=1;" vertex="1" parent="1">
          <mxGeometry x="354" y="1450" width="120" height="60" as="geometry" />
        </mxCell>
      </root>
    </mxGraphModel>
  </diagram>
</mxfile>
